<?xml version="1.0" encoding="UTF-8" standalone="no" ?>
<!DOCTYPE svg PUBLIC "-//W3C//DTD SVG 1.1//EN" "http://www.w3.org/Graphics/SVG/1.1/DTD/svg11.dtd">
<svg xmlns="http://www.w3.org/2000/svg" xmlns:xlink="http://www.w3.org/1999/xlink" version="1.1" width="1080" height="1080" viewBox="0 0 1080 1080" xml:space="preserve">
<desc>Created with Fabric.js 5.2.4</desc>
<defs>
</defs>
<g transform="matrix(1 0 0 1 540 540)" id="9c77d19d-104c-4830-a41f-85db64b3693f"  >
<rect style="stroke: none; stroke-width: 1; stroke-dasharray: none; stroke-linecap: butt; stroke-dashoffset: 0; stroke-linejoin: miter; stroke-miterlimit: 4; fill: rgb(255,255,255); fill-rule: nonzero; opacity: 1; visibility: hidden;" vector-effect="non-scaling-stroke"  x="-540" y="-540" rx="0" ry="0" width="1080" height="1080" />
</g>
<g transform="matrix(1 0 0 1 540 540)" id="6c3512c6-0758-408d-b960-b4099c732384"  >
</g>
<g transform="matrix(1.35 0 0 1.35 540 577.23)"  >
<g style="" vector-effect="non-scaling-stroke"   >
		<g transform="matrix(17.02 0 0 17.02 231.11 -38.68)"  >
<path style="stroke: none; stroke-width: 1; stroke-dasharray: none; stroke-linecap: butt; stroke-dashoffset: 0; stroke-linejoin: miter; stroke-miterlimit: 4; fill: rgb(255,255,255); fill-rule: nonzero; opacity: 1;" vector-effect="non-scaling-stroke"  transform=" translate(-37.08, -21.23)" d="M 37.076 19.748 C 36.252 19.748 35.582 20.42 35.582 21.247 L 35.582 22.707 L 38.573 22.707 L 38.573 21.247 C 38.573 20.42 37.9 19.748 37.076 19.748 z" stroke-linecap="round" />
</g>
		<g transform="matrix(17.02 0 0 17.02 0 0)"  >
<path style="stroke: none; stroke-width: 1; stroke-dasharray: none; stroke-linecap: butt; stroke-dashoffset: 0; stroke-linejoin: miter; stroke-miterlimit: 4; fill: rgb(255,255,255); fill-rule: nonzero; opacity: 1;" vector-effect="non-scaling-stroke"  transform=" translate(-23.5, -23.5)" d="M 41.227 12.635 L 5.773 12.635 C 2.6 12.635 0 15.237 0 18.41 L 0 28.59 C 0 31.768 2.6 34.365 5.773 34.365 L 41.227000000000004 34.365 C 44.4 34.365 47 31.768 47 28.59 L 47 18.41 C 47 15.237 44.4 12.635 41.227 12.635 z M 12.56 25.077 L 13.945 26.585 L 11.546 28.385 L 10.562 26.585 C 10.417 26.328 10.19 25.824 9.870999999999999 25.077 C 9.521999999999998 25.898000000000003 9.29 26.398000000000003 9.174999999999999 26.585 L 8.177 28.385 L 5.710999999999999 26.585 L 7.202 25.077 C 7.622 24.662000000000003 8.029 24.306 8.431000000000001 24.014000000000003 C 8.021 23.977000000000004 7.482000000000001 23.901000000000003 6.817000000000001 23.776000000000003 L 4.752000000000001 23.440000000000005 L 5.710000000000001 20.628000000000004 L 7.562000000000001 21.470000000000002 C 7.7570000000000014 21.558000000000003 8.242 21.835 9.014000000000001 22.294000000000004 C 8.849000000000002 21.547000000000004 8.743 20.992000000000004 8.695 20.628000000000004 L 8.432 18.615000000000002 L 11.373000000000001 18.615000000000002 L 11.135000000000002 20.628 C 11.083000000000002 21.118 10.969000000000001 21.673000000000002 10.8 22.294 C 11.139000000000001 22.124 11.363000000000001 22.011 11.469000000000001 21.949 C 11.841000000000001 21.742 12.128000000000002 21.599 12.321000000000002 21.507 L 14.174000000000001 20.628 L 15.092 23.44 L 13.043000000000001 23.868000000000002 C 12.668000000000001 23.94 12.112000000000002 23.987000000000002 11.373000000000001 24.014000000000003 C 11.874 24.406 12.266 24.758 12.56 25.077 z M 26.137 25.077 L 27.524 26.585 L 25.125 28.384 L 24.142 26.585 C 23.997 26.328 23.77 25.824 23.451999999999998 25.077 C 23.101999999999997 25.898000000000003 22.872 26.398000000000003 22.756999999999998 26.585 L 21.756999999999998 28.384 L 19.291999999999998 26.585 L 20.782999999999998 25.077 C 21.203 24.662000000000003 21.608999999999998 24.306 22.011999999999997 24.014000000000003 C 21.603999999999996 23.977000000000004 21.062999999999995 23.901000000000003 20.397999999999996 23.776000000000003 L 18.331999999999997 23.440000000000005 L 19.290999999999997 20.628000000000004 L 21.144 21.470000000000002 C 21.337 21.558000000000003 21.823999999999998 21.835 22.595 22.294000000000004 C 22.426 21.547000000000004 22.32 20.992000000000004 22.275 20.628000000000004 L 22.011 18.617000000000004 L 24.953 18.617000000000004 L 24.714 20.628000000000004 C 24.66 21.118000000000002 24.548 21.673000000000002 24.381 22.294000000000004 C 24.718 22.124000000000002 24.942 22.011000000000003 25.049 21.949000000000005 C 25.419 21.742000000000004 25.707 21.599000000000004 25.901 21.507000000000005 L 27.755 20.628000000000004 L 28.674 23.440000000000005 L 26.622999999999998 23.868000000000006 C 26.247999999999998 23.940000000000005 25.694 23.987000000000005 24.953999999999997 24.014000000000006 C 25.451 24.406 25.844 24.758 26.137 25.077 z M 41.35 27.625 C 41.35 28.244 40.843 28.75 40.225 28.75 L 33.93 28.75 C 33.311 28.75 32.805 28.244 32.805 27.625 L 32.805 23.831 C 32.805 23.212 33.311 22.706 33.93 22.706 L 34.082 22.706 L 34.082 21.246 C 34.082 19.593 35.425 18.247999999999998 37.076 18.247999999999998 C 38.728 18.247999999999998 40.072 19.592 40.072 21.246 L 40.072 22.706 L 40.224000000000004 22.706 C 40.841 22.706 41.349000000000004 23.212 41.349000000000004 23.831 L 41.349000000000004 27.625 z" stroke-linecap="round" />
</g>
</g>
</g>
<g transform="matrix(1 0 0 1 540 869.35)" style="" id="6f568860-6184-429d-8e30-b387ba1e7f97"  >
		<text xml:space="preserve" font-family="Alegreya" font-size="80" font-style="normal" font-weight="600" style="stroke: none; stroke-width: 1; stroke-dasharray: none; stroke-linecap: butt; stroke-dashoffset: 0; stroke-linejoin: miter; stroke-miterlimit: 4; fill: rgb(255,255,255); fill-rule: nonzero; opacity: 1; white-space: pre;" ><tspan x="-240.48" y="25.13" >SecureKeyGen</tspan></text>
</g>
<g transform="matrix(1 0 0 1 540 947.62)" style="" id="c3d982fa-970b-4c79-bcd0-99af20702ace"  >
		<text xml:space="preserve" font-family="Lato" font-size="30" font-style="normal" font-weight="400" style="stroke: none; stroke-width: 1; stroke-dasharray: none; stroke-linecap: butt; stroke-dashoffset: 0; stroke-linejoin: miter; stroke-miterlimit: 4; fill: rgb(255,255,255); fill-rule: nonzero; opacity: 1; white-space: pre;" ><tspan x="-337.83" y="9.42" >Your truly offline Password generator and manager!</tspan></text>
</g>
</svg>